name processed_emg_signals
nRows=52
nColumns=6
 
endheader
time	RGLTMED	RRF	RADDLONG	RTA	RGM
0.15378799999999992	0.4039620105120367	0.7268503701854515	0.6130869409041291	0.6242711645532419	0.999270486143938
0.15478799999999993	0.4044254930496398	0.72720353081323	0.6131334326984142	0.6217149240645461	0.999566783696058
0.15578799999999993	0.4048968640978015	0.7276165394423921	0.6132445728899999	0.6191933375002951	0.999788713345158
0.15678799999999993	0.405374039843429	0.7280841882712966	0.6134180366318095	0.6167074453778062	0.9999338536417508
0.15778799999999993	0.4058549680902724	0.7286012356700946	0.6136514528335155	0.6142582915045093	1.0
0.15878799999999993	0.4063376349297767	0.7291624214270588	0.613942411019616	0.6118469215912353	0.999985172593912
0.15978799999999993	0.4068200711328825	0.7297624818027387	0.6142884680693699	0.6094743816679963	0.9998876230853366
0.16078799999999993	0.4073003582413692	0.7303961643477761	0.6146871548166666	0.6071417163121857	0.9997058402034728
0.16178799999999993	0.4077766343405558	0.7310582424459201	0.6151359824919903	0.6048499667010518	0.999438554211131
0.16278799999999993	0.4082470994983351	0.7317435295490715	0.6156324489921011	0.602600168502636	0.9990847403020168
0.16378799999999993	0.4087100208577521	0.7324468930739135	0.6161740449653206	0.6003933496217202	0.9986436209776448
0.16478799999999993	0.4091637373722595	0.7331632679302192	0.6167582597022602	0.5982305278183953	0.9981146674539396
0.16578799999999994	0.4096066641740428	0.7338876696513894	0.6173825868243259	0.5961127082171611	0.997497600147564
0.16678799999999994	0.4100372965672312	0.7346152070984344	0.6180445297643404	0.5940408807234899	0.996792388290784
0.16778799999999994	0.410454213639649	0.7353410947097486	0.6187416070357898	0.5920160173643516	0.9959992487228264
0.16878799999999994	0.4108560814892623	0.7360606642703811	0.6194713572875065	0.5900390695681195	0.99511864390353
0.16978799999999994	0.411241656064587	0.7367693761758343	0.6202313441408204	0.5881109653987936	0.9941512791925504
0.17078799999999994	0.411609785621339	0.7374628301662393	0.6210191608057769	0.5862326067585639	0.993098099434852
0.17178799999999994	0.4119594127994372	0.73813677550757	0.6218324344733762	0.5844048665723249	0.9919602848906808
0.17278799999999994	0.4122895763253013	0.7387871205972912	0.6226688304814707	0.5826285859670436	0.99073924654626
0.17378799999999994	0.4125994123447342	0.7394099419732357	0.6235260562534942	0.5809045714586561	0.9894366208392046
0.17478799999999994	0.4128881553912252	0.7400014927069488	0.6244018650102764	0.5792335921588615	0.9880542638301218
0.17578799999999994	0.413155138994675	0.7405582101644854	0.62529405925645	0.5776163770141148	0.9865942448495192
0.17678799999999995	0.4133997959352616	0.74107672311957	0.6262004940432842	0.5760536120886144	0.985058839647572
0.17778799999999995	0.4136216581474046	0.7415538582050122	0.6271190800095964	0.5745459379028408	0.9834505230730296
0.17878799999999995	0.4138203562797056	0.7419866456892715	0.6280477862017996	0.5730939468384424	0.981771961307104
0.17978799999999995	0.4139956189181796	0.7423723245661862	0.6289846426731767	0.5716981806198238	0.9800260036776628
0.18078799999999995	0.4141472714829796	0.7427083469475775	0.6299277428626009	0.5703591278823258	0.9782156740788008
0.18178799999999995	0.4142752348117634	0.7429923817509285	0.6308752457527903	0.5690772218361911	0.9763441620201176
0.18278799999999995	0.4143795234457611	0.7432223176766818	0.6318253778088778	0.5678528380352683	0.9744148133290972
0.18378799999999995	0.4144602436354263	0.7433962654713026	0.6327764346975283	0.5666862922589982	0.9724311205282417
0.18478799999999995	0.4145175910828087	0.7435125594735721	0.6337267827860882	0.5655778385163911	0.9703967129065276
0.18578799999999995	0.4145518484368235	0.7435697584436775	0.6346748604212511	0.5645276671807525	0.9683153463022764
0.18678799999999995	0.4145633825568309	0.7435666456792019	0.635619178987707	0.5635359032636749	0.96619089261224
0.18778799999999995	0.4145526415590501	0.7435022284273728	0.636558323749213	0.5626026048365008	0.9640273290399664
0.18878799999999996	0.4145201516594637	0.7433757366074261	0.6374909544758758	0.5617277616069869	0.961828727095788
0.18978799999999996	0.4144665138263334	0.743186620859419	0.6384158058615863	0.5609112936584398	0.9595992413619052
0.19078799999999996	0.4143924002553691	0.7429345499364972	0.6393316877351097	0.5601530503586243	0.9573430980394712
0.19178799999999996	0.4142985506806673	0.7426194074578512	0.6402374850684311	0.5594528094455254	0.955064583298952
0.19278799999999996	0.4141857685346342	0.7422412880386116	0.6411321577862689	0.558810276296919	0.9527680314594184
0.19378799999999996	0.414054916969663	0.7418004928118676	0.6420147403815228	0.5582250833901108	0.9504578130253926
0.19478799999999996	0.4139069147538285	0.7412975243577438	0.6428843413409641	0.5576967899576445	0.9481383226118664
0.19578799999999993	0.4137427320519767	0.7407330810556569	0.6437401423853375	0.5572248818444074	0.945813966788668
0.19678799999999994	0.4135633861034098	0.7401080508802946	0.6445813975281202	0.5568087715707568	0.9434891518761293
0.19778799999999994	0.4133699368070088	0.7394235046679641	0.6454074319587368	0.5564477986058339	0.94116827172413
0.19878799999999994	0.4131634822252614	0.73868068888595	0.6462176407575776	0.5561412298547674	0.938855695506757
0.19978799999999994	0.4129451540194276	0.7378810179415309	0.6470114874518322	0.5558882603630585	0.9365557555641416
0.20078799999999994	0.4127161128293138	0.7370260660688998	0.6477885024215887	0.5556880142412076	0.934272735322558
0.20178799999999994	0.4124775436122836	0.7361175588325797	0.6485482811666541	0.5555395458123314	0.9320108573242646
0.20278799999999994	0.4122306509564938	0.7351573642863349	0.6492904824456653	0.555441840984857	0.9297742713999388
0.20378799999999994	0.4119766543830989	0.7341474838265087	0.6500148263006591	0.5553938188517368	0.9275670430180792
0.20478799999999994	0.4117167836520049	0.7330900427782256	0.6507210919811568	0.5553943335164802	0.925393141846654
